<svg width="300" height="300" viewBox="0 0 300 300" fill="none" xmlns="http://www.w3.org/2000/svg">
<rect width="300" height="300" fill="#1E1E1E"/>
<path d="M189.062 87.5C189.062 97.86 184.947 107.796 177.621 115.121C170.296 122.447 160.36 126.563 150 126.563C139.64 126.563 129.704 122.447 122.378 115.121C115.053 107.796 110.937 97.86 110.937 87.5C110.937 77.14 115.053 67.2043 122.378 59.8786C129.704 52.553 139.64 48.4375 150 48.4375C160.36 48.4375 170.296 52.553 177.621 59.8786C184.947 67.2043 189.062 77.14 189.062 87.5ZM71.8853 234.563C72.22 214.066 80.5971 194.523 95.21 180.146C109.823 165.77 129.501 157.713 150 157.713C170.499 157.713 190.177 165.77 204.79 180.146C219.403 194.523 227.78 214.066 228.114 234.563C203.608 245.8 176.96 251.599 150 251.563C122.125 251.563 95.6665 245.479 71.8853 234.563Z" stroke="#151515" stroke-width="15" stroke-linecap="round" stroke-linejoin="round"/>
</svg>
